<?xml version="1.0" standalone="no"?>
<!DOCTYPE svg PUBLIC "-//W3C//DTD SVG 20010904//EN"
 "http://www.w3.org/TR/2001/REC-SVG-20010904/DTD/svg10.dtd">
<svg version="1.0" xmlns="http://www.w3.org/2000/svg"
 width="212.000000pt" height="212.000000pt" viewBox="0 0 212.000000 212.000000"
 preserveAspectRatio="xMidYMid meet">
<metadata>
Created by potrace 1.14, written by Peter Selinger 2001-2017
</metadata>
<g transform="translate(0.000000,212.000000) scale(0.100000,-0.100000)"
fill="#000000" stroke="none">
<path d="M1045 1818 c-11 -6 -60 -48 -110 -92 -49 -45 -95 -85 -101 -91 -50
-44 -66 -55 -77 -48 -7 4 -52 41 -102 83 -111 95 -126 104 -150 86 -10 -7 -17
-23 -17 -37 0 -33 27 -177 64 -337 17 -74 26 -137 22 -141 -5 -4 -40 -13 -79
-21 -38 -7 -120 -29 -181 -50 -68 -23 -122 -36 -138 -33 -60 12 -166 -58 -166
-108 0 -11 9 -37 20 -58 18 -36 55 -150 116 -360 14 -46 29 -91 33 -100 44
-80 244 -157 511 -195 171 -25 621 -26 748 -1 9 1 40 6 67 9 146 20 345 91
407 146 37 33 42 45 102 245 35 116 73 229 84 252 27 53 27 73 1 107 -30 38
-76 58 -139 61 -30 2 -111 19 -180 38 -69 19 -151 40 -182 47 -32 6 -58 13
-58 15 0 1 13 58 29 126 17 68 32 138 35 155 3 17 13 66 21 110 8 43 15 87 15
96 0 18 -25 48 -40 48 -5 0 -61 -43 -124 -95 -63 -52 -117 -95 -120 -95 -2 0
-11 6 -18 13 -7 6 -56 50 -108 97 -52 47 -104 93 -115 103 -33 30 -49 36 -70
25z m131 -186 c182 -162 172 -156 203 -136 35 23 144 114 153 128 15 21 8 -35
-18 -152 -30 -135 -27 -125 -42 -178 -14 -47 -20 -50 -157 -74 -76 -13 -449
-10 -530 5 -120 22 -119 21 -144 122 -23 90 -28 109 -36 153 -2 14 -9 47 -14
75 -5 27 -9 51 -8 52 1 0 42 -32 90 -73 66 -55 92 -71 106 -66 17 6 100 78
230 199 25 24 49 43 52 43 3 0 55 -44 115 -98z m-386 -486 c84 -14 492 -16
550 -2 79 18 125 23 158 15 176 -38 312 -73 312 -79 0 -12 -98 -80 -143 -100
-55 -25 -95 -18 -218 40 -251 119 -515 119 -769 1 -58 -27 -121 -52 -142 -54
-45 -6 -97 17 -174 74 l-56 43 52 18 c101 34 264 68 305 63 22 -3 78 -12 125
-19z m-573 -101 c21 -9 69 -40 108 -69 107 -80 127 -89 204 -84 53 3 90 14
182 56 106 47 148 60 234 76 40 8 202 8 240 1 89 -17 158 -39 230 -74 86 -41
112 -52 135 -57 84 -20 150 1 253 79 115 86 157 100 207 70 27 -15 28 -18 16
-42 -14 -27 -56 -145 -61 -171 -6 -31 -78 -266 -86 -281 -22 -43 -196 -110
-372 -144 -212 -41 -647 -41 -876 0 -163 29 -293 73 -359 123 -18 14 -35 58
-73 187 -27 94 -62 203 -78 243 l-29 72 21 15 c27 19 58 19 104 0z"/>
<path d="M875 806 c-26 -62 6 -139 43 -103 22 23 23 114 2 127 -24 15 -30 12
-45 -24z"/>
<path d="M1210 825 c-19 -23 -22 -101 -4 -119 29 -30 62 10 58 72 -2 31 -19
62 -34 62 -4 0 -13 -7 -20 -15z"/>
<path d="M1101 622 c-5 -10 -7 -34 -4 -55 4 -36 4 -37 -27 -37 -38 0 -100 27
-100 44 0 18 -21 35 -36 29 -8 -3 -14 -15 -14 -27 1 -46 57 -85 130 -91 61 -4
105 9 143 43 37 35 34 62 -9 90 -43 27 -70 28 -83 4z"/>
</g>
</svg>
